<?xml version="1.0" encoding="utf-8"?>
<!-- Generator: Adobe Illustrator 21.0.1, SVG Export Plug-In . SVG Version: 6.00 Build 0)  -->
<svg version="1.1" id="Layer_1" xmlns="http://www.w3.org/2000/svg" xmlns:xlink="http://www.w3.org/1999/xlink" x="0px" y="0px"
	 viewBox="0 0 166 72" style="enable-background:new 0 0 166 72;" xml:space="preserve" width="200px">
<style type="text/css">
	.st0{fill:#0069B4;}
	.st1{fill:none;}
	.st2{enable-background:new    ;}
	.st3{fill:#FFFFFF;}
	.st4{fill:#0B0B0B;}
</style>
<g>
	<path class="st0" d="M162,4v64H4V4H162 M166,0H0v72h166V0L166,0z"/>
</g>
<g>
	<rect x="1" y="44" class="st0" width="164" height="27"/>
</g>
<rect y="53.2" class="st1" width="166" height="17.5"/>
<g class="st2">
	<path class="st3" d="M9.4,58.1c0-2.8,1.8-5,4.6-5c2,0,3.5,1.1,4.1,2.8l-1.9,0.6c-0.2-0.7-0.9-1.6-2.2-1.6c-1.8,0-2.5,1.6-2.5,3.2
		v0.1c0,1.6,0.8,3.2,2.5,3.2c1.2,0,2-0.9,2.2-1.6l1.9,0.6c-0.6,1.7-2,2.8-4.1,2.8C11.2,63.1,9.4,60.9,9.4,58.1z"/>
	<path class="st3" d="M19.7,53.2h6.6V55h-4.6v2.1h4.3v1.8h-4.3v2.3h4.9V63h-6.9V53.2z"/>
	<path class="st3" d="M28.2,53.2H32c2.3,0,3.6,1.5,3.6,3.1c0,1.3-0.8,2.3-1.9,2.7l2.1,4h-2.3l-1.8-3.5h-1.6V63h-2V53.2z M31.8,55
		h-1.6v2.7h1.6c1.1,0,1.7-0.6,1.7-1.3S33,55,31.8,55z"/>
	<path class="st3" d="M36.4,53.2h7.5V55h-2.7v8h-2v-8h-2.7V53.2z"/>
	<path class="st3" d="M45.2,53.2h2V63h-2V53.2z"/>
	<path class="st3" d="M49.3,53.2h6.6V55h-4.6v2.1h4.3v1.8h-4.3V63h-2V53.2z"/>
	<path class="st3" d="M57.5,53.2h2V63h-2V53.2z"/>
	<path class="st3" d="M61.7,53.2h6.6V55h-4.6v2.1h4.3v1.8h-4.3v2.3h4.9V63h-6.9V53.2z"/>
	<path class="st3" d="M74,63h-3.7v-9.8H74c3.2,0,4.6,2,4.6,4.9S77.2,63,74,63z M76.6,57.9c0-1.7-0.8-2.9-2.8-2.9h-1.5v6.2h1.5
		c2,0,2.8-1.3,2.8-2.9V57.9z"/>
	<path class="st3" d="M83.3,58.1c0-2.8,1.8-5,4.6-5c2,0,3.5,1.1,4.1,2.8L90,56.5c-0.2-0.7-0.9-1.6-2.2-1.6c-1.8,0-2.5,1.6-2.5,3.2
		v0.1c0,1.6,0.8,3.2,2.5,3.2c1.2,0,2-0.9,2.2-1.6l1.9,0.6c-0.6,1.7-2,2.8-4.1,2.8C85,63.1,83.3,60.9,83.3,58.1z"/>
	<path class="st3" d="M97.6,63.1c-2.9,0-4.7-2.2-4.7-5s1.8-5,4.7-5c2.9,0,4.7,2.2,4.7,5S100.5,63.1,97.6,63.1z M97.6,54.8
		c-1.8,0-2.6,1.4-2.6,3.2v0c0,1.8,0.8,3.2,2.6,3.2c1.8,0,2.6-1.4,2.6-3.2C100.2,56.3,99.4,54.8,97.6,54.8z"/>
	<path class="st3" d="M108.8,59.8l-2.9-3.6V63h-2v-9.8h2l2.9,3.8l3-3.8h1.9V63h-2v-6.8L108.8,59.8L108.8,59.8z"/>
	<path class="st3" d="M115.9,53.2h3.9c2,0,3.3,1.4,3.3,3.2c0,1.9-1.4,3.2-3.4,3.2h-1.8V63h-2V53.2z M119.3,55h-1.4v2.9h1.4
		c1.1,0,1.8-0.5,1.8-1.4v-0.1C121.1,55.5,120.4,55,119.3,55z"/>
	<path class="st3" d="M129.5,61.4h-3.8l-0.5,1.5h-2.1l3.2-9.8h2.6l3.2,9.8h-2.2L129.5,61.4z M126.2,59.7h2.7l-1.4-4.4h0L126.2,59.7z
		"/>
	<path class="st3" d="M135.4,55.5V63h-2v-9.8h2.8l3.9,6.6v-6.6h2V63H140L135.4,55.5z"/>
	<path class="st3" d="M149.6,53.2h2.2l-3.3,5.8v4h-2v-4l-3.3-5.8h2.3l2,3.8L149.6,53.2z"/>
</g>
<g>
	<g>
		<g>
			<path class="st4" d="M43.6,36.6c7,0,12.7-5.7,12.7-12.7s-5.7-12.7-12.7-12.7s-12.7,5.7-12.7,12.7S36.6,36.6,43.6,36.6"/>
			<path class="st3" d="M38.7,21.4c0.4,0.2,0.9,0,1.1-0.4c0.2-0.4,0-0.9-0.5-1.1c-0.4-0.2-0.9,0-1.1,0.5
				C38.1,20.8,38.3,21.3,38.7,21.4"/>
			<path class="st3" d="M36.8,22.5c0.4,0.2,0.9,0,1.1-0.4c0.2-0.4,0-0.9-0.5-1.1c-0.4-0.2-0.9,0-1.1,0.5
				C36.2,21.9,36.4,22.4,36.8,22.5"/>
			<path class="st3" d="M36.3,24.6c0.4,0.2,0.9,0,1.1-0.4c0.2-0.4,0-0.9-0.5-1.1c-0.4-0.2-0.9,0-1.1,0.5
				C35.7,24,35.9,24.4,36.3,24.6"/>
			<path class="st3" d="M40.8,22.1c0.4,0.2,0.9,0,1.1-0.4c0.2-0.4,0-0.9-0.5-1.1c-0.4-0.2-0.9,0-1.1,0.5
				C40.2,21.4,40.4,21.9,40.8,22.1"/>
			<path class="st3" d="M48.4,21.4c-0.4,0.2-0.9,0-1.1-0.4c-0.2-0.4,0-0.9,0.5-1.1c0.4-0.2,0.9,0,1.1,0.5
				C49,20.8,48.8,21.3,48.4,21.4"/>
			<path class="st3" d="M50.3,22.5c-0.4,0.2-0.9,0-1.1-0.4c-0.2-0.4,0-0.9,0.5-1.1c0.4-0.2,0.9,0,1.1,0.5
				C50.9,21.9,50.7,22.4,50.3,22.5"/>
			<path class="st3" d="M50.9,24.6c-0.4,0.2-0.9,0-1.1-0.4c-0.2-0.4,0-0.9,0.5-1.1c0.4-0.2,0.9,0,1.1,0.5
				C51.5,24,51.3,24.4,50.9,24.6"/>
			<path class="st3" d="M46.3,22.1c-0.4,0.2-0.9,0-1.1-0.4c-0.2-0.4,0-0.9,0.5-1.1c0.4-0.2,0.9,0,1.1,0.5
				C46.9,21.4,46.7,21.9,46.3,22.1"/>
			<path class="st3" d="M44,19.9L44,19.9l1.1,0.5v-1.5l-1,0.3l0,0L44,19.1l0,0l0.4-1.3h-0.8h-0.8l0.4,1.3l0,0l-0.1,0.1l0,0l-1-0.3
				v1.5l1-0.6l0,0l0.1,0.1l-0.6,1.8l0,0l0,0c0,0.1,0,0.2,0,0.3c0,0.5,0.4,0.9,0.8,1l0,0h0.1h0.1l0,0c0.5-0.1,0.8-0.5,0.8-1
				c0-0.1,0-0.2,0-0.3l0,0l0,0l-0.6-1.8C43.9,20,44,20,44,19.9"/>
			<path class="st3" d="M43.6,28.8c2,0,3.9,0.1,5.6,0.4c0.5-2,1.1-3.2,1.7-4l-1.1-0.4c0.1,0.6,0.1,0.8,0,1.2c-0.2-0.2-0.4-0.5-0.5-1
				l-0.5,1.8c0.3-0.2,0.6-0.4,0.9-0.4c-0.5,1.1-1.2,1.4-1.6,1.3c-0.5-0.1-0.8-0.6-0.7-0.9c0.1-0.6,0.7-0.7,0.9-0.1
				c0.5-1-0.4-1.4-0.9-1c0.8-0.8,0.9-1.6,0.3-2.5c-1,0.7-1,1.5-0.5,2.5c-0.6-0.6-1.4-0.3-1.1,0.7c0.4-0.6,0.9-0.2,0.8,0.4
				c-0.1,0.5-0.7,0.9-1.6,0.9c-1.2-0.1-1.3-0.9-1.3-1.6c0.3-0.1,0.8,0.2,1.3,0.9l0.2-1.9c-0.5,0.5-1,0.6-1.5,0.6
				c0.2-0.5,0.9-1.4,0.9-1.4h-1.1l0,0l0,0h-1.3c0,0,0.8,0.9,0.9,1.4c-0.5,0-1-0.1-1.5-0.6l0.2,1.9c0.5-0.6,1-0.9,1.3-0.9
				c0,0.7-0.1,1.5-1.3,1.6c-0.8,0.1-1.5-0.3-1.6-0.9s0.4-1,0.8-0.4c0.3-1-0.6-1.4-1.1-0.7c0.4-1,0.4-1.7-0.5-2.5
				c-0.7,0.9-0.6,1.7,0.3,2.5c-0.6-0.3-1.4,0-0.9,1c0.3-0.6,0.8-0.5,0.9,0.1c0.1,0.4-0.2,0.8-0.7,0.9c-0.4,0.1-1.1-0.2-1.6-1.3
				c0.3,0,0.5,0.2,0.9,0.4L38,25c-0.1,0.5-0.3,0.8-0.5,1c-0.1-0.4-0.1-0.6,0-1.2l-1.1,0.4c0.6,0.8,1.2,2,1.7,4
				C39.7,29,41.6,28.8,43.6,28.8"/>
		</g>
	</g>
	<g>
		<path class="st4" d="M92.1,17.6h-2.5v-1.5H94v5.3h-1.7v-1.1c-0.5,0.7-1.4,1.3-2.6,1.3c-2.8,0-4.4-2.2-4.4-4.9
			c0-2.8,1.8-4.9,4.6-4.9c1.8,0,3.3,0.9,3.9,2.2l-1.7,1c-0.4-0.8-1.1-1.4-2.2-1.4c-1.8,0-2.6,1.5-2.6,3.1v0.1c0,1.6,0.8,3.2,2.6,3.2
			C91.7,19.8,92.1,18.4,92.1,17.6z"/>
		<path class="st4" d="M100,21.5c-2.9,0-4.6-2.2-4.6-4.9c0-2.8,1.7-4.9,4.6-4.9s4.6,2.2,4.6,4.9C104.5,19.3,102.8,21.5,100,21.5z
			 M100,13.4c-1.8,0-2.6,1.3-2.6,3.2l0,0c0,1.8,0.8,3.2,2.6,3.2c1.7,0,2.6-1.3,2.6-3.2C102.5,14.9,101.7,13.4,100,13.4z"/>
		<path class="st4" d="M107.9,21.4l-2.7-9.6h2.2l1.9,7.1l1.8-7.1h2.2l-2.7,9.6H107.9z"/>
		<path class="st4" d="M114.4,19c0.7,0,1.3,0.6,1.3,1.3c0,0.7-0.6,1.3-1.3,1.3c-0.7,0-1.3-0.6-1.3-1.3C113.2,19.5,113.7,19,114.4,19
			z"/>
		<path class="st4" d="M123.1,17.7v-6h1.9V18c0,2.1-1.6,3.5-3.9,3.5s-3.9-1.4-3.9-3.5v-6.2h1.9v6c0,1.4,0.9,2,2,2
			C122.3,19.8,123.1,19.1,123.1,17.7z"/>
		<path class="st4" d="M127.1,11.8h1.9V16l3.4-4.2h2.4l-3.3,3.8l3.6,5.8h-2.3l-2.5-4.3l-1.2,1.4v2.9h-1.9L127.1,11.8L127.1,11.8z"/>
	</g>
	<g>
		<path class="st4" d="M88.8,36.3L86,26.6h1.3l2.3,8.5l2.4-8.5h1.3l-2.8,9.6h-1.7V36.3z"/>
		<path class="st4" d="M95.1,26.6h5.8v1h-4.6v3.2h4.2v1h-4.2v3.4h4.8v1h-6C95.1,36.2,95.1,26.6,95.1,26.6z"/>
		<path class="st4" d="M103.3,26.6h3.3c1.8,0,3.2,0.9,3.2,2.9c0,1.2-0.7,2.2-1.9,2.7l2,4.1h-1.4l-1.8-3.8h-2.2v3.8h-1.2V26.6z
			 M106.6,31.4c1.1,0,1.9-0.7,1.9-1.8c0-1.2-0.8-1.9-1.9-1.9h-2.2v3.7C104.4,31.4,106.6,31.4,106.6,31.4z"/>
		<path class="st4" d="M112,26.6h1.2v9.6H112V26.6z"/>
		<path class="st4" d="M116,26.6h5.8v1h-4.6v3.2h4.2v1h-4.2v4.4H116V26.6z"/>
		<path class="st4" d="M128.9,26.6h1.3l-3.1,5.7v3.9h-1.2v-3.9l-3.1-5.7h1.3l2.4,4.6L128.9,26.6z"/>
	</g>
	<path class="st4" d="M69.3,11.3c-3.8,0-7.4,0.5-10.1,1.3v1.6v7.4v6.8c0,1.8,1.5,3.5,5,5.7c2,1.2,4,2.2,4.3,2.3l0.8,0.4l0.8-0.4
		c0.1,0,2.2-1,4.3-2.3c3.5-2.1,5-3.8,5-5.7v-6.8v-7.4v-1.6C76.7,11.8,73.2,11.3,69.3,11.3"/>
	<polygon class="st3" points="73.9,18.1 67.4,24.9 64.8,22.1 62.9,24.2 67.4,29 75.9,20.1 	"/>
</g>
</svg>
