<?xml version="1.0" encoding="utf-8"?>
<!-- Generator: Adobe Illustrator 21.0.1, SVG Export Plug-In . SVG Version: 6.00 Build 0)  -->
<svg version="1.1" id="Layer_1" xmlns="http://www.w3.org/2000/svg" xmlns:xlink="http://www.w3.org/1999/xlink" x="0px" y="0px"
	 viewBox="0 0 841.9 595.3" style="enable-background:new 0 0 841.9 595.3;" xml:space="preserve" width="200px">
<style type="text/css">
	.st0{fill:#E6E6E6;}
	.st1{fill:#0B0B0B;}
	.st2{fill:#FFFFFF;}
	.st3{fill:none;stroke:#0B0B0B;stroke-width:6;stroke-miterlimit:10;stroke-dasharray:20,20;}
	.st4{fill:none;stroke:#FFFFFF;stroke-width:6;stroke-miterlimit:10;stroke-dasharray:20,20;}
	.st5{fill:none;stroke:#646464;stroke-width:0.75;stroke-miterlimit:10;}
	.st6{fill:none;stroke:#646464;stroke-width:0.75;stroke-miterlimit:10;stroke-dasharray:8.1756,6.1317;}
	.st7{fill:none;stroke:#646464;stroke-width:0.75;stroke-miterlimit:10;stroke-dasharray:8.2562,6.1921;}
	.st8{fill:none;stroke:#646464;stroke-width:0.75;stroke-miterlimit:10;stroke-dasharray:8.5437,6.4078;}
	.st9{fill:none;stroke:#646464;stroke-width:0.75;stroke-miterlimit:10;stroke-dasharray:7.0734,5.305;}
	.st10{fill:none;stroke:#646464;stroke-width:0.75;stroke-miterlimit:10;stroke-dasharray:6.5353,4.9015;}
	.st11{fill:none;stroke:#646464;stroke-width:0.75;stroke-miterlimit:10;stroke-dasharray:9.4054,7.0541;}
	.st12{fill:none;stroke:#646464;stroke-width:0.75;stroke-miterlimit:10;stroke-dasharray:6.4258,4.8194;}
	.st13{fill:none;stroke:#646464;stroke-width:0.75;stroke-miterlimit:10;stroke-dasharray:10.2984,7.7238;}
	.st14{fill:none;stroke:#646464;stroke-width:0.75;stroke-miterlimit:10;stroke-dasharray:7.7191,5.7894;}
	.st15{fill:none;stroke:#646464;stroke-width:0.75;stroke-miterlimit:10;stroke-dasharray:8.2561,6.1921;}
	.st16{fill:none;stroke:#646464;stroke-width:0.75;stroke-miterlimit:10;stroke-dasharray:6.5351,4.9013;}
	.st17{fill:none;stroke:#646464;stroke-width:0.75;stroke-miterlimit:10;stroke-dasharray:6.4256,4.8192;}
	.st18{fill:none;stroke:#646464;stroke-width:0.75;stroke-miterlimit:10;stroke-dasharray:10.2981,7.7236;}
	.st19{fill:none;stroke:#646464;stroke-width:0.75;stroke-miterlimit:10;stroke-dasharray:7.719,5.7892;}
	.st20{fill:none;stroke:#646464;stroke-width:0.75;stroke-miterlimit:10;stroke-dasharray:6.4255,4.8191;}
	.st21{fill:#ED1C23;}
</style>
<g>
	<g>
		<path class="st1" d="M247,417.2c101.9,0,184.5-82.6,184.5-184.5c0-101.9-82.6-184.5-184.5-184.5c-101.9,0-184.5,82.6-184.5,184.5
			C62.5,334.6,145.1,417.2,247,417.2"/>
		<path class="st2" d="M176.4,196.4c6.2,2.6,13.3-0.4,15.8-6.5c2.6-6.1-0.4-13.3-6.6-15.8c-6.1-2.5-13.2,0.5-15.7,6.7
			C167.4,186.8,170.3,193.9,176.4,196.4"/>
		<path class="st2" d="M149,212.4c6.2,2.6,13.3-0.4,15.8-6.5c2.5-6.1-0.4-13.3-6.6-15.8c-6.1-2.5-13.2,0.5-15.7,6.6
			C140,202.8,142.9,209.9,149,212.4"/>
		<path class="st2" d="M141,242.8c6.2,2.6,13.3-0.4,15.8-6.5c2.5-6.1-0.4-13.3-6.6-15.8c-6.1-2.5-13.2,0.5-15.7,6.6
			C132,233.3,134.9,240.3,141,242.8"/>
		<path class="st2" d="M207,206c6.2,2.6,13.3-0.4,15.8-6.5c2.5-6.1-0.4-13.3-6.6-15.8c-6.1-2.5-13.2,0.5-15.7,6.6
			C197.9,196.4,200.9,203.5,207,206"/>
		<path class="st2" d="M317.7,196.4c-6.2,2.6-13.3-0.4-15.8-6.5c-2.6-6.1,0.4-13.3,6.6-15.8c6.1-2.5,13.2,0.5,15.7,6.7
			C326.7,186.8,323.8,193.9,317.7,196.4"/>
		<path class="st2" d="M345.1,212.4c-6.2,2.6-13.3-0.4-15.8-6.5c-2.5-6.1,0.4-13.3,6.6-15.8c6.1-2.5,13.2,0.5,15.7,6.6
			C354.1,202.8,351.2,209.9,345.1,212.4"/>
		<path class="st2" d="M353.1,242.8c-6.2,2.6-13.3-0.4-15.8-6.5c-2.5-6.1,0.4-13.3,6.6-15.8c6.1-2.5,13.2,0.5,15.7,6.6
			C362.1,233.3,359.2,240.3,353.1,242.8"/>
		<path class="st2" d="M287.1,206c-6.2,2.6-13.3-0.4-15.8-6.5c-2.5-6.1,0.4-13.3,6.6-15.8c6.1-2.5,13.2,0.5,15.7,6.6
			C296.2,196.4,293.2,203.5,287.1,206"/>
		<path class="st2" d="M253.4,174.8L253.4,174.8l15.3,8v-22.5l-15.3,4.8l-0.1-0.1c-0.4-0.6-0.9-1.1-1.5-1.5l0,0l6.1-19.3h-11h-11
			l6.1,19.3l0,0c-0.6,0.4-1.1,0.9-1.5,1.5l-0.1,0.1l-15.3-4.8v22.5l15.3-8l0,0c0.4,0.6,1,1.1,1.6,1.6l-8.8,26.5c0,0,0,0.1,0,0.1l0,0
			c-0.4,1.3-0.6,2.7-0.6,4.2c0,7.2,5.3,13.1,12.2,14.1c0.1,0,0.2,0,0.3,0c0.6,0.1,1.2,0.1,1.8,0.1s1.2-0.1,1.8-0.1
			c0.1,0,0.2,0,0.3,0c6.9-1,12.2-6.9,12.2-14.1c0-1.5-0.2-2.9-0.6-4.2l0,0c0,0,0-0.1,0-0.1l-8.8-26.5
			C252.4,175.9,253,175.4,253.4,174.8"/>
		<path class="st2" d="M247,304.4c29,0,56.5,2,81,5.5c6.9-29.2,15.4-46,24.1-57.9l-16.4-5.9c1.6,8.3,1.9,12.2,0.1,17.6
			c-2.7-2.7-5.3-7.5-7.3-15l-8,26.5c4.8-3.3,8.6-5.5,12.9-5.6c-7.6,16.3-17.1,20.5-23.2,19.4c-7.5-1.4-10.9-8.1-9.8-13.7
			c1.7-8,10-10.1,13.8-0.8c7.4-15-5.1-19.7-13.2-15.2c12.3-12.3,13.8-23.3,3.8-36.5c-13.9,10.6-14,21.1-7.8,35.9
			c-8.1-9.3-20.7-4.3-16.2,10.7c5.8-9.1,13.6-3.4,12.4,5.2c-1,7.5-10.9,13.5-23.2,12.5c-17.7-1.6-18.7-13.8-19.1-23.9
			c4.3-0.8,12.2,3.2,18.8,12.6l2.5-28.1c-7.3,7.6-13.8,9-21.2,9.2c2.4-7.6,13.6-20.1,13.6-20.1h-16.3h0h0h-18.8
			c0,0,11.2,12.4,13.6,20.1c-7.3-0.2-13.9-1.7-21.2-9.2l2.5,28.1c6.7-9.4,14.5-13.4,18.8-12.6c-0.4,10.1-1.5,22.3-19.2,23.9
			c-12.3,1.1-22.2-5-23.2-12.5c-1.2-8.6,6.5-14.3,12.4-5.2c4.6-15-8.1-20-16.2-10.7c6.3-14.8,6.1-25.3-7.8-35.9
			c-10,13.2-8.5,24.2,3.8,36.5c-8-4.5-20.5,0.2-13.2,15.2c3.8-9.3,12.1-7.2,13.8,0.8c1.2,5.7-2.3,12.4-9.8,13.7
			c-6.1,1.1-15.6-3.1-23.2-19.4c4.3,0.1,8,2.3,12.9,5.6l-8-26.5c-2,7.4-4.6,12.3-7.3,15c-1.8-5.4-1.6-9.3,0.1-17.6l-16.4,5.9
			c8.7,11.9,17.2,28.7,24.1,57.9C190.5,306.4,218,304.4,247,304.4"/>
	</g>
</g>
<g>
	<path class="st1" d="M122.2,519.4h-17.3v-10.5h30.7v37.2h-12v-7.9c-3.5,5.2-10.2,8.9-18.6,8.9c-19.8,0-31-15.4-31-34.9
		c0-19.5,12.7-34.9,32.5-34.9c12.9,0,23.3,6.2,27.8,15.7l-12,6.8c-2.9-5.8-7.8-10-15.9-10c-12.5,0-18.2,10.5-18.2,21.9v0.7
		c0,11.5,5.6,22.3,18.3,22.3C119.2,534.7,122.2,525.2,122.2,519.4z"/>
	<path class="st1" d="M177.5,547.1c-20.2,0-32.4-15.4-32.4-34.9c0-19.5,12.1-34.9,32.4-34.9c20.2,0,32.3,15.4,32.3,34.9
		C209.7,531.7,197.6,547.1,177.5,547.1z M177.5,489.8c-12.4,0-18.1,9.5-18.1,22.3v0.3c0,12.8,5.7,22.3,18.1,22.3
		c12.3,0,18-9.5,18-22.3C195.5,500,190,489.8,177.5,489.8z"/>
	<path class="st1" d="M233.3,546.1l-19.2-67.8h15.4l13.2,50l13-50h15.4l-19.2,67.8H233.3z"/>
	<path class="st1" d="M279.7,528.9c4.9,0,9.1,4.1,9.1,9c0,5-4.2,9.1-9.1,9.1c-4.9,0-9.1-4.1-9.1-9.1
		C270.6,533,274.8,528.9,279.7,528.9z"/>
	<path class="st1" d="M341.1,520.2v-42h13.6v44.1c0,15.1-11.6,24.8-27.6,24.8c-16,0-27.6-9.7-27.6-24.8v-44.1H313v42
		c0,9.9,6.1,14.4,14,14.4C335,534.7,341.1,530.1,341.1,520.2z"/>
	<path class="st1" d="M369,478.3h13.8v29.4l24.2-29.4h16.9l-23.5,26.9l25.1,40.9h-16l-17.9-30.4l-8.7,9.8v20.6H369V478.3z"/>
</g>
<g>
	<path class="st1" d="M486,546.1l-20-67.8h8.9l16.6,60.1l16.7-60.1h8.9l-19.9,67.8H486z"/>
	<path class="st1" d="M530.9,478.3h40.6v7.2h-32.3v22.3h29.6v7.2h-29.6v24h34.1v7.2h-42.4V478.3z"/>
	<path class="st1" d="M588.4,478.3h23.2c12.6,0,22.6,6.2,22.6,20.2c0,8.6-4.7,15.4-13.5,18.8l14.3,28.8h-9.6L612.6,519h-15.8v27.1
		h-8.3V478.3z M612.1,511.7c7.8,0,13.4-4.7,13.4-13c0-8.4-5.6-13.3-13.4-13.3h-15.3v26.3H612.1z"/>
	<path class="st1" d="M650,478.3h8.3v67.8H650V478.3z"/>
	<path class="st1" d="M677.9,478.3h40.6v7.2h-32.3v22.3h29.6v7.2h-29.6v31.2h-8.3V478.3z"/>
	<path class="st1" d="M769.1,478.3h9l-21.8,40.1v27.7H748v-27.7l-21.9-40.1h9.5l16.8,32.3L769.1,478.3z"/>
</g>
<path class="st1" d="M622.1,48.2c-55.9,0-107.1,7.3-147.1,19.3v22.6v107.5v98.7c0,26.7,21.8,51.4,73.1,82.6
	c29.1,17.8,58.6,31.7,62,33.3l12,5.6l12-5.6c1.3-0.6,31.6-14.8,62-33.3c51.2-31.3,73.1-56,73.1-82.6v-98.7V90.2V67.5
	C729.2,55.5,678,48.2,622.1,48.2"/>
<polygon class="st2" points="689.3,147.7 594.6,247 556.1,206.6 527.8,236.3 594.6,306.4 717.6,177.4 "/>
<rect x="-47.1" y="282.2" transform="matrix(0.8172 0.5764 -0.5764 0.8172 248.5493 -188.2425)" class="st21" width="936.2" height="31"/>
</svg>
