<?xml version="1.0" encoding="utf-8"?>
<!-- Generator: Adobe Illustrator 21.0.1, SVG Export Plug-In . SVG Version: 6.00 Build 0)  -->
<svg version="1.1" id="Layer_1" xmlns="http://www.w3.org/2000/svg" xmlns:xlink="http://www.w3.org/1999/xlink" x="0px" y="0px"
	 viewBox="0 0 126.5 40.2" style="enable-background:new 0 0 126.5 40.2;" xml:space="preserve">
<style type="text/css">
	.st0{fill:#FFFFFF;stroke:#000000;stroke-width:2;stroke-miterlimit:10;}
	.st1{fill:#3AAA35;stroke:#000000;stroke-width:2;stroke-miterlimit:10;}
	.st2{fill:#0A0B0B;}
	.st3{fill:#FFFFFF;}
	.st4{fill:#0B0C0C;}
</style>
<symbol  id="New_Symbol_2" viewBox="-116.5 -98 233 248">
	<rect x="-115.5" y="-97" class="st0" width="231" height="246"/>
	<rect x="-115.5" y="123" class="st1" width="231" height="26"/>
</symbol>
<path class="st2" d="M15.6,0C9.7,0,4.2,0.8,0,2v2.4v11.4v10.5c0,2.8,2.3,5.4,7.7,8.8c3.1,1.9,6.2,3.4,6.6,3.5l1.3,0.6l1.3-0.6
	c0.1-0.1,3.3-1.6,6.6-3.5c5.4-3.3,7.7-5.9,7.7-8.8V15.8V4.4V2C26.9,0.8,21.5,0,15.6,0"/>
<polygon class="st3" points="22.7,10.5 12.7,21.1 8.6,16.8 5.6,19.9 12.7,27.3 25.7,13.7 "/>
<g>
	<path class="st4" d="M41.6,12.2c0.9,1.1,2.2,1.7,3.7,1.7c1.6,0,3-0.8,3-2.4c0-1-0.5-1.5-1.2-1.9c-1.3-0.6-3.4-0.7-4.8-1.5
		c-0.9-0.5-1.6-1.3-1.6-2.8c0-2,1.7-3.7,4.5-3.7c1.7,0,3.3,0.7,4.4,1.8l-1.2,1c-0.7-0.7-1.8-1.4-3.2-1.4c-1.6,0-2.9,0.8-2.9,2.2
		c0,2.2,3.1,1.9,5.4,2.9C49,8.8,50,9.6,50,11.4c0,2.6-2.4,3.9-4.8,3.9c-2.2,0-3.8-0.9-4.8-2.1L41.6,12.2z"/>
	<path class="st4" d="M53.2,1.9c0.6,0,1.1,0.5,1.1,1.2c0,0.6-0.5,1.2-1.1,1.2c-0.6,0-1.2-0.5-1.2-1.2C52.1,2.4,52.6,1.9,53.2,1.9z
		 M54,15.1h-1.6V5.7H54V15.1z"/>
	<path class="st4" d="M60.3,5.5c1,0,2,0.4,2.7,1.3V5.7h1.6v9.5c0,2.3-2.1,3-4,3c-1.1,0-2.4-0.2-3.5-0.8l0.5-1.3
		c0.7,0.3,1.9,0.7,3,0.7c1.6,0,2.5-0.6,2.5-2V13c-0.6,0.9-1.6,1.3-2.7,1.3c-2.3,0-3.8-1.9-3.8-4.4S57.9,5.5,60.3,5.5z M63,9.8
		c0-1.7-0.7-3-2.4-3c-1.7,0-2.5,1.3-2.5,3v0.1c0,1.6,0.8,3,2.5,3C62.3,12.9,63,11.6,63,9.8L63,9.8z"/>
	<path class="st4" d="M67.5,5.7h1.6v1.1c0.6-0.9,1.6-1.3,2.8-1.3C73.9,5.5,75,7,75,8.7v6.4h-1.6V9.2c0-1.7-0.9-2.3-1.9-2.3
		c-1.2,0-2.4,0.9-2.4,2.6v5.6h-1.6V5.7z"/>
	<path class="st4" d="M83.7,1.9c0.6,0,1.1,0.5,1.1,1.2c0,0.6-0.5,1.2-1.1,1.2c-0.6,0-1.2-0.5-1.2-1.2C82.6,2.4,83.1,1.9,83.7,1.9z
		 M84.5,15.1h-1.6V5.7h1.6V15.1z"/>
	<path class="st4" d="M87.5,5.7H89v1.1c0.6-0.9,1.6-1.3,2.8-1.3C93.9,5.5,95,7,95,8.7v6.4h-1.6V9.2c0-1.7-0.9-2.3-1.9-2.3
		c-1.2,0-2.4,0.9-2.4,2.6v5.6h-1.6V5.7z"/>
	<path class="st4" d="M49.1,35.3l1.7-7.6h1.6l-2.3,9.4h-2l-1.9-7.6l-1.9,7.6h-1.9l-2.3-9.4h1.7l1.6,7.6l2-7.6h1.8L49.1,35.3z"/>
	<path class="st4" d="M55.5,23.8c0.6,0,1.1,0.5,1.1,1.2c0,0.6-0.5,1.2-1.1,1.2c-0.6,0-1.2-0.5-1.2-1.2
		C54.3,24.4,54.8,23.8,55.5,23.8z M56.2,37.1h-1.6v-9.4h1.6V37.1z"/>
	<path class="st4" d="M61.7,34.7c0,0.6,0.1,1.2,1.2,1.2c0.3,0,0.9-0.1,1.2-0.1l0.2,1.4c0,0-0.9,0.1-1.7,0.1c-1.5,0-2.4-0.6-2.4-2.2
		V29h-1.8v-1.4h1.8v-3.1l1.6-0.5v3.6h2.6V29h-2.6V34.7z"/>
	<path class="st4" d="M66.4,23.8H68v4.9c0.6-0.9,1.6-1.3,2.8-1.3c2.1,0,3.2,1.5,3.2,3.2v6.4h-1.6v-5.9c0-1.7-0.9-2.3-1.9-2.3
		c-1.2,0-2.4,0.9-2.4,2.6v5.6h-1.6V23.8z"/>
	<path class="st4" d="M84.4,37.1l-3.9-13.2h1.7l3.2,11.7l3.3-11.7h1.7l-3.9,13.2H84.4z"/>
	<path class="st4" d="M92.9,32.8c0.1,1.8,1.2,3.1,2.9,3.1c1.1,0,1.8-0.4,2.5-0.9l0.8,1.1c-0.9,0.7-2,1.2-3.3,1.2
		c-2.7,0-4.5-2.1-4.5-4.9c0-2.9,1.7-4.9,4.3-4.9c2.5,0,4,2.1,4,4.9v0.5H92.9z M92.9,31.6h5c-0.1-1.5-0.9-2.8-2.4-2.8
		C94,28.8,93,30.2,92.9,31.6z"/>
	<path class="st4" d="M106.7,29h-0.2c-1.6,0-3,0.6-3,3.2v4.8h-1.6v-9.4h1.6v1.5c0.5-1.1,1.6-1.7,2.8-1.7h0.5V29z"/>
	<path class="st4" d="M109.5,23.8c0.6,0,1.1,0.5,1.1,1.2c0,0.6-0.5,1.2-1.1,1.2c-0.6,0-1.2-0.5-1.2-1.2
		C108.4,24.4,108.9,23.8,109.5,23.8z M110.3,37.1h-1.6v-9.4h1.6V37.1z"/>
	<path class="st4" d="M115.5,27.6h1.9V29h-1.9v8.1H114V29h-1.6v-1.4h1.6v-1.8c0-1.6,1.1-2.2,2.6-2.2c0.8,0,1.3,0.1,1.5,0.1l-0.1,1.3
		c-0.4,0-1-0.1-1.3-0.1c-0.9,0-1.1,0.5-1.1,1.1V27.6z"/>
	<path class="st4" d="M118.5,27.6h1.8l2.3,7.8l2.2-7.8h1.7l-3.4,10.9c-0.4,1.3-1.3,1.7-2.5,1.7c-0.5,0-1.1-0.1-1.7-0.2l0.2-1.4
		c0,0,0.6,0.1,1.2,0.1c0.7,0,1-0.3,1.2-0.9l0.1-0.4L118.5,27.6z"/>
</g>
</svg>
