<?xml version="1.0" encoding="utf-8"?>
<!-- Generator: Adobe Illustrator 21.0.1, SVG Export Plug-In . SVG Version: 6.00 Build 0)  -->
<svg version="1.1" id="Layer_1" xmlns="http://www.w3.org/2000/svg" xmlns:xlink="http://www.w3.org/1999/xlink" x="0px" y="0px"
	 viewBox="0 0 191.6 47.9" style="enable-background:new 0 0 191.6 47.9;" xml:space="preserve" width="350px">
<style type="text/css">
	.st0{fill:#FFFFFF;stroke:#000000;stroke-width:2;stroke-miterlimit:10;}
	.st1{fill:#3AAA35;stroke:#000000;stroke-width:2;stroke-miterlimit:10;}
	.st2{fill:#055FA6;stroke:#055FA6;stroke-width:1.8985;stroke-miterlimit:10;}
	.st3{fill:#FFFFFF;}
	.st4{fill:#0A0B0B;}
</style>
<symbol  id="New_Symbol_2" viewBox="-116.5 -98 233 248">
	<rect x="-115.5" y="-97" class="st0" width="231" height="246"/>
	<rect x="-115.5" y="123" class="st1" width="231" height="26"/>
</symbol>
<g>
	<g>
		<rect x="0.9" y="0.9" class="st2" width="189.7" height="46"/>
		<g>
			<path class="st3" d="M50,24.7c0,0.7,0.2,1.2,0.4,1.6c0.5,0.8,1.4,1.1,2.6,1.1c0.6,0,1.1-0.1,1.5-0.2c0.9-0.3,1.3-0.9,1.3-1.7
				c0-0.6-0.2-1.1-0.6-1.3c-0.4-0.3-1-0.5-1.8-0.7l-1.5-0.4c-1-0.2-1.7-0.5-2.1-0.8c-0.7-0.5-1.1-1.2-1.1-2.1c0-1,0.3-1.9,1-2.5
				s1.7-1,3-1c1.2,0,2.2,0.3,3,0.9c0.8,0.6,1.2,1.5,1.2,2.8h-1.5c-0.1-0.6-0.2-1.1-0.5-1.4C54.7,18.3,54,18,52.9,18
				c-0.9,0-1.5,0.2-1.9,0.6s-0.6,0.8-0.6,1.3c0,0.6,0.2,1,0.7,1.2c0.3,0.2,1,0.4,2,0.6l1.6,0.4c0.8,0.2,1.3,0.4,1.7,0.7
				c0.7,0.5,1.1,1.3,1.1,2.3c0,1.3-0.5,2.2-1.4,2.7s-1.9,0.8-3.1,0.8c-1.4,0-2.5-0.4-3.3-1.1c-0.8-0.7-1.2-1.7-1.2-2.9H50z"/>
			<path class="st3" d="M59.4,16.9h1.4v1.6h-1.4V16.9z M59.4,20.1h1.4v8.3h-1.4V20.1z"/>
			<path class="st3" d="M67.5,20.4c0.3,0.2,0.5,0.4,0.8,0.8v-1.1h1.3v7.6c0,1.1-0.2,1.9-0.5,2.5c-0.6,1.1-1.7,1.7-3.3,1.7
				c-0.9,0-1.7-0.2-2.3-0.6c-0.6-0.4-1-1-1-1.9H64c0.1,0.4,0.2,0.7,0.4,0.9c0.3,0.3,0.8,0.5,1.5,0.5c1.1,0,1.8-0.4,2.1-1.1
				c0.2-0.4,0.3-1.2,0.3-2.4c-0.3,0.4-0.6,0.7-1,1c-0.4,0.2-0.9,0.3-1.6,0.3c-0.9,0-1.7-0.3-2.4-1c-0.7-0.6-1-1.7-1-3.2
				c0-1.4,0.3-2.5,1-3.3c0.7-0.8,1.5-1.2,2.5-1.2C66.5,19.9,67,20,67.5,20.4z M67.7,21.9c-0.4-0.5-1-0.8-1.6-0.8c-1,0-1.7,0.5-2,1.4
				c-0.2,0.5-0.3,1.1-0.3,1.9c0,0.9,0.2,1.7,0.6,2.2c0.4,0.5,0.9,0.7,1.5,0.7c1,0,1.7-0.5,2.1-1.4c0.2-0.5,0.3-1.1,0.3-1.8
				C68.3,23.1,68.1,22.4,67.7,21.9z"/>
			<path class="st3" d="M71.7,20h1.3v1.2c0.4-0.5,0.8-0.8,1.3-1.1c0.4-0.2,0.9-0.3,1.5-0.3c1.2,0,2,0.4,2.4,1.2
				c0.2,0.5,0.3,1.1,0.3,1.9v5.4h-1.4v-5.3c0-0.5-0.1-0.9-0.2-1.2c-0.2-0.5-0.7-0.8-1.4-0.8c-0.3,0-0.6,0-0.8,0.1
				c-0.4,0.1-0.7,0.3-1,0.7c-0.2,0.3-0.4,0.6-0.5,0.9c-0.1,0.3-0.1,0.7-0.1,1.3v4.4h-1.4V20z"/>
			<path class="st3" d="M84.9,16.9h1.4v1.6h-1.4V16.9z M84.9,20.1h1.4v8.3h-1.4V20.1z"/>
			<path class="st3" d="M88.4,20h1.3v1.2c0.4-0.5,0.8-0.8,1.3-1.1c0.4-0.2,0.9-0.3,1.5-0.3c1.2,0,2,0.4,2.4,1.2
				c0.2,0.5,0.3,1.1,0.3,1.9v5.4h-1.4v-5.3c0-0.5-0.1-0.9-0.2-1.2c-0.2-0.5-0.7-0.8-1.4-0.8c-0.3,0-0.6,0-0.8,0.1
				c-0.4,0.1-0.7,0.3-1,0.7c-0.2,0.3-0.4,0.6-0.5,0.9c-0.1,0.3-0.1,0.7-0.1,1.3v4.4h-1.4V20z"/>
			<path class="st3" d="M102.3,20l1.6,6.6l1.6-6.6h1.6l1.6,6.6l1.7-6.6h1.4l-2.4,8.4H108l-1.7-6.5l-1.6,6.5h-1.5l-2.4-8.4H102.3z"/>
			<path class="st3" d="M113.1,16.9h1.4v1.6h-1.4V16.9z M113.1,20.1h1.4v8.3h-1.4V20.1z"/>
			<path class="st3" d="M116.9,17.7h1.4V20h1.3v1.1h-1.3v5.5c0,0.3,0.1,0.5,0.3,0.6c0.1,0.1,0.3,0.1,0.5,0.1c0.1,0,0.1,0,0.2,0
				c0.1,0,0.2,0,0.3,0v1.1c-0.2,0-0.3,0.1-0.5,0.1c-0.2,0-0.4,0-0.6,0c-0.7,0-1.1-0.2-1.3-0.5s-0.4-0.8-0.4-1.3v-5.5h-1.1V20h1.1
				V17.7z"/>
			<path class="st3" d="M121,16.9h1.4v4.3c0.3-0.4,0.6-0.7,0.9-0.9c0.5-0.3,1-0.4,1.7-0.4c1.2,0,2,0.4,2.5,1.3
				c0.2,0.5,0.4,1.1,0.4,1.9v5.4h-1.4v-5.3c0-0.6-0.1-1.1-0.2-1.4c-0.3-0.5-0.7-0.7-1.4-0.7c-0.6,0-1.1,0.2-1.6,0.6
				c-0.5,0.4-0.7,1.2-0.7,2.3v4.4H121V16.9z"/>
			<path class="st3" d="M135.3,16.9l3.3,9.8l3.3-9.8h1.7l-4.2,11.5h-1.6l-4.2-11.5H135.3z"/>
			<path class="st3" d="M150,20.3c0.6,0.3,1,0.6,1.3,1.1c0.3,0.4,0.5,0.9,0.6,1.5c0.1,0.4,0.1,1,0.1,1.8h-6.1c0,0.9,0.2,1.5,0.6,2
				s0.9,0.8,1.7,0.8c0.7,0,1.3-0.2,1.7-0.7c0.2-0.3,0.4-0.6,0.5-1h1.4c0,0.3-0.2,0.7-0.4,1c-0.2,0.4-0.4,0.7-0.7,0.9
				c-0.4,0.4-0.9,0.7-1.6,0.8c-0.3,0.1-0.7,0.1-1.1,0.1c-1,0-1.9-0.4-2.6-1.1c-0.7-0.8-1.1-1.8-1.1-3.2c0-1.3,0.4-2.4,1.1-3.3
				c0.7-0.8,1.7-1.3,2.8-1.3C148.9,19.8,149.4,20,150,20.3z M150.5,23.5c-0.1-0.6-0.2-1.1-0.4-1.5c-0.4-0.7-1-1-1.9-1
				c-0.6,0-1.2,0.2-1.6,0.7c-0.4,0.5-0.7,1.1-0.7,1.8H150.5z"/>
			<path class="st3" d="M153.7,20h1.3v1.4c0.1-0.3,0.4-0.6,0.8-1c0.4-0.4,0.9-0.6,1.5-0.6c0,0,0.1,0,0.1,0s0.2,0,0.3,0v1.5
				c-0.1,0-0.2,0-0.2,0s-0.1,0-0.2,0c-0.7,0-1.3,0.2-1.6,0.7c-0.4,0.5-0.6,1-0.6,1.6v4.8h-1.4V20z"/>
			<path class="st3" d="M158.9,16.9h1.4v1.6h-1.4V16.9z M158.9,20.1h1.4v8.3h-1.4V20.1z"/>
			<path class="st3" d="M163.1,17.5c0.3-0.5,1-0.7,1.9-0.7c0.1,0,0.2,0,0.3,0c0.1,0,0.2,0,0.3,0v1.3c-0.1,0-0.3,0-0.3,0
				c-0.1,0-0.1,0-0.2,0c-0.4,0-0.7,0.1-0.8,0.3s-0.1,0.8-0.1,1.7h1.4v1.1h-1.4v7.2h-1.4v-7.2h-1.2v-1.1h1.2v-1.3
				C162.8,18.2,162.9,17.7,163.1,17.5z"/>
			<path class="st3" d="M172,20h1.6c-0.2,0.5-0.6,1.8-1.3,3.7c-0.5,1.4-0.9,2.6-1.3,3.5c-0.8,2.1-1.4,3.4-1.7,3.9
				c-0.3,0.5-0.9,0.7-1.7,0.7c-0.2,0-0.3,0-0.5,0c-0.1,0-0.2,0-0.4-0.1v-1.3c0.2,0.1,0.4,0.1,0.5,0.1s0.2,0,0.3,0
				c0.3,0,0.5,0,0.6-0.1s0.2-0.2,0.3-0.3c0,0,0.1-0.3,0.3-0.6s0.3-0.7,0.4-0.9l-3.1-8.6h1.6l2.2,6.8L172,20z"/>
		</g>
		<path class="st4" d="M25.2,9.6c-4.2,0-8.1,0.5-11.1,1.5v1.7v8.1v7.5c0,2,1.7,3.9,5.5,6.2c2.2,1.3,4.4,2.4,4.7,2.5l0.9,0.4l0.9-0.4
			c0.1,0,2.4-1.1,4.7-2.5c3.9-2.4,5.5-4.2,5.5-6.2v-7.5v-8.1V11C33.3,10.1,29.4,9.6,25.2,9.6"/>
		<polygon class="st3" points="30.3,17.1 23.1,24.6 20.2,21.5 18.1,23.8 23.1,29.1 32.4,19.3 		"/>
	</g>
</g>
</svg>
